<svg width="640" height="800" viewBox="0 0 640 800" fill="none" xmlns="http://www.w3.org/2000/svg">
  <rect width="640" height="800" rx="48" fill="url(#bg)"/>
  <ellipse cx="320" cy="760" rx="180" ry="26" fill="#0F172A" fill-opacity="0.18"/>
  <path d="M180 674C192 572 236 506 320 506C404 506 448 572 460 674H180Z" fill="#CBD5E1"/>
  <path d="M220 688C236 596 272 548 320 548C368 548 404 596 420 688H220Z" fill="#0F172A"/>
  <path d="M414 314C414 385.797 372.111 446 320.5 446C268.889 446 227 385.797 227 314C227 242.203 268.889 184 320.5 184C372.111 184 414 242.203 414 314Z" fill="#F3CFBC"/>
  <path d="M225 310C225 208.38 267.758 138 320.5 138C373.242 138 416 208.38 416 310V331H225V310Z" fill="#111827"/>
  <path d="M250 180C273 145 307 128 356 136C401 143 426 183 430 236L399 226C384 195 360 178 329 176C296 174 272 188 250 216V180Z" fill="#0F172A"/>
  <path d="M282 310C292.493 310 301 301.493 301 291C301 280.507 292.493 272 282 272C271.507 272 263 280.507 263 291C263 301.493 271.507 310 282 310Z" fill="#1E293B"/>
  <path d="M360 310C370.493 310 379 301.493 379 291C379 280.507 370.493 272 360 272C349.507 272 341 280.507 341 291C341 301.493 349.507 310 360 310Z" fill="#1E293B"/>
  <path d="M285 356C298.08 368.343 309.913 374.515 320.5 374.515C331.087 374.515 342.92 368.343 356 356" stroke="#9A6160" stroke-width="10" stroke-linecap="round"/>
  <path d="M216 692C234 612 270 572 320 572C370 572 406 612 424 692H216Z" fill="#0F766E"/>
  <path d="M200 690H440L474 800H166L200 690Z" fill="#115E59"/>
  <defs>
    <linearGradient id="bg" x1="320" y1="0" x2="320" y2="800" gradientUnits="userSpaceOnUse">
      <stop stop-color="#E2E8F0"/>
      <stop offset="0.5" stop-color="#F1F5F9"/>
      <stop offset="1" stop-color="#F8FAFC"/>
    </linearGradient>
  </defs>
</svg>
