<svg width="640" height="800" viewBox="0 0 640 800" fill="none" xmlns="http://www.w3.org/2000/svg">
  <rect width="640" height="800" rx="48" fill="url(#bg)"/>
  <ellipse cx="320" cy="760" rx="180" ry="26" fill="#0F172A" fill-opacity="0.18"/>
  <path d="M188 668C198 566 238 500 320 500C402 500 442 566 452 668H188Z" fill="#E2E8F0"/>
  <path d="M234 672C244 588 271 540 320 540C369 540 396 588 406 672H234Z" fill="#1E293B"/>
  <path d="M408 312C408 383.797 369.797 442 320 442C270.203 442 232 383.797 232 312C232 240.203 270.203 182 320 182C369.797 182 408 240.203 408 312Z" fill="#F6D0BE"/>
  <path d="M228 300C228 205.038 270.085 142 320 142C369.915 142 412 205.038 412 300V328H228V300Z" fill="#111827"/>
  <path d="M266 290C284.777 290 300 274.777 300 256C300 237.223 284.777 222 266 222C247.223 222 232 237.223 232 256C232 274.777 247.223 290 266 290Z" fill="#111827"/>
  <path d="M374 290C392.777 290 408 274.777 408 256C408 237.223 392.777 222 374 222C355.223 222 340 237.223 340 256C340 274.777 355.223 290 374 290Z" fill="#111827"/>
  <path d="M276 305C286.493 305 295 296.493 295 286C295 275.507 286.493 267 276 267C265.507 267 257 275.507 257 286C257 296.493 265.507 305 276 305Z" fill="#1E293B"/>
  <path d="M364 305C374.493 305 383 296.493 383 286C383 275.507 374.493 267 364 267C353.507 267 345 275.507 345 286C345 296.493 353.507 305 364 305Z" fill="#1E293B"/>
  <path d="M320 330C336.569 330 350 316.569 350 300H290C290 316.569 303.431 330 320 330Z" fill="#E59BA1"/>
  <path d="M278 354C290.861 370.404 304.751 378.606 320 378.606C335.249 378.606 349.139 370.404 362 354" stroke="#A85E65" stroke-width="10" stroke-linecap="round"/>
  <path d="M223 689C238 609 273 569 320 569C367 569 402 609 417 689H223Z" fill="#2563EB"/>
  <path d="M214 681H426L460 800H180L214 681Z" fill="#1D4ED8"/>
  <defs>
    <linearGradient id="bg" x1="320" y1="0" x2="320" y2="800" gradientUnits="userSpaceOnUse">
      <stop stop-color="#E0F2FE"/>
      <stop offset="0.4" stop-color="#DBEAFE"/>
      <stop offset="1" stop-color="#F8FAFC"/>
    </linearGradient>
  </defs>
</svg>
